<?xml version="1.0" encoding="utf-8"?>
<!-- Svg Vector Icons : http://www.onlinewebfonts.com/icon -->
<!DOCTYPE svg PUBLIC "-//W3C//DTD SVG 1.1//EN" "http://www.w3.org/Graphics/SVG/1.1/DTD/svg11.dtd">
<svg version="1.1" xmlns="http://www.w3.org/2000/svg" xmlns:xlink="http://www.w3.org/1999/xlink" x="0px" y="0px" viewBox="0 0 256 256" enable-background="new 0 0 256 256" xml:space="preserve">
<metadata> Svg Vector Icons : http://www.onlinewebfonts.com/icon </metadata>
<g><g><path fill="#000000" d="M246,105.9L217.7,167l-9.2-22.7c-42.9,22.1-55.8,55.5-58.6,107.7l-43.3-0.2c3.4-66.3,21.5-116.3,85.6-147.7l-9.2-22.9L246,105.9z M106.7,108.5c8,6.5,15.2,13.5,21.5,21c6.4-7.5,13.6-14.5,21.7-20.9V54.3h24.9L129.2,4l-47,50l24.5,0.1V108.5L106.7,108.5z M116.8,145c-12.5-16.1-29.5-29.9-52.5-41.4l9.4-22.8L10,104.3l28.5,62l9.3-22.6c24.8,13,39.5,29.8,47.9,51.8C100.2,177.2,106.9,160.4,116.8,145z"/></g></g>
</svg>