<?xml version="1.0" encoding="utf-8"?>
<!-- Generator: Adobe Illustrator 27.2.0, SVG Export Plug-In . SVG Version: 6.00 Build 0)  -->
<svg version="1.1" id="Layer_1" xmlns="http://www.w3.org/2000/svg" xmlns:xlink="http://www.w3.org/1999/xlink" x="0px" y="0px"
	 viewBox="0 0 512 512" style="enable-background:new 0 0 512 512;" xml:space="preserve">
<style type="text/css">
	.st0{fill:#a5a5a5;}
</style>
<g>
	<path class="st0" d="M256,0c13.13,0,23.95,9.88,25.43,22.61l0.17,2.99l0.01,33.64c89.1,11.48,159.69,82.07,171.16,171.18
		l33.63-0.02c14.14,0,25.6,11.46,25.6,25.6c0,13.13-9.88,23.95-22.61,25.43l-2.99,0.17l-33.64,0.01
		c-11.48,89.09-82.06,159.67-171.15,171.15l-0.01,33.64c0,14.14-11.46,25.6-25.6,25.6c-13.13,0-23.95-9.88-25.43-22.61l-0.17-2.99
		l0.02-33.63c-89.11-11.47-159.7-82.06-171.18-171.16L25.6,281.6C11.46,281.6,0,270.14,0,256c0-13.13,9.88-23.95,22.61-25.43
		l2.99-0.17l33.63,0.02C70.71,141.3,141.3,70.71,230.42,59.23L230.4,25.6C230.4,11.46,241.86,0,256,0z M256,108.8
		c-81.3,0-147.2,65.9-147.2,147.2c0,81.3,65.9,147.2,147.2,147.2c81.3,0,147.2-65.9,147.2-147.2C403.2,174.7,337.3,108.8,256,108.8z
		 M256,153.6c56.55,0,102.4,45.85,102.4,102.4c0,56.55-45.85,102.4-102.4,102.4c-56.55,0-102.4-45.85-102.4-102.4
		C153.6,199.45,199.45,153.6,256,153.6z"/>
</g>
</svg>
