<?xml version="1.0" encoding="utf-8"?>
<!-- Generator: Adobe Illustrator 24.0.0, SVG Export Plug-In . SVG Version: 6.00 Build 0)  -->
<svg version="1.1" id="Layer_1" xmlns="http://www.w3.org/2000/svg" xmlns:xlink="http://www.w3.org/1999/xlink" x="0px" y="0px"
	 viewBox="0 0 128 128" style="enable-background:new 0 0 128 128;" xml:space="preserve">
<style type="text/css">
	.st0{fill:#FFFFFF;stroke:#FFFFFF;stroke-width:2.5;stroke-miterlimit:10;}
</style>
<g>
	<path class="st0" d="M121.8,43.8c0-0.4,0-0.6,0-1c-5.7-5-10.6-10.7-15.7-16.2c-1.8-1.9-2.9-1.9-4.7,0C95.6,32.7,89.7,38.6,84,44.8
		c-1.3,1.3-1.9,1.4-3.1,0c-1.6-2-3.6-3.6-5.2-5.7c-1.3-1.6-2.7-2-4.5-1.9c-8.7,0.1-17.5,0-26.2,0c-7.7,0-6.5-0.8-6.5,6.9
		c0,4.1-1.5,5.3-5.3,4.5c-2.6-0.6-4-2.4-4.5-5C26.4,32.4,20,24.1,13.1,16c-1.3-1.5-2.6-3-4-4.4c-0.9-0.9-3.5,1.9-2.7,2.9
		c0.3,0.4,0.7,0.7,1,1.1C15,24.3,22.6,32.9,25,45.2c1.1,5.5,5.7,8.2,11,7.6c2.2-0.3,2.5,0.4,2.5,2.5c-0.1,6.5,0,13-0.1,19.4
		c0,1.3,0.3,2.3,1.2,3.2c11.7,13,23.5,25.9,35.1,39c1.6,1.7,2.7,1.7,4.3,0.1c11-11,22-22,33.1-32.9c1.6-1.6,1.8-2.7,0.1-4.4
		c-3.9-3.9-7.6-8-11.5-12c-0.7-0.8-1.3-1.3-0.2-2.4C107.6,58.1,114.3,50.5,121.8,43.8z M104.5,29.4c0.7-1.1,1.4-0.8,2.2,0
		c3.7,3.9,7.3,7.8,11.1,11.6c0.8,0.9,0.9,1.4,0,2.3c-1.7,1.8-3.2,3.8-4.9,5.9c-4.5-4.8-8.4-9-12.3-13.2c-0.2-0.2-0.6-0.5-0.6-0.7
		C100.1,32.3,103.1,31.5,104.5,29.4z M109.4,81.1c1,1,1.2,1.6,0,2.7c-10.3,10.1-20.5,20.3-30.7,30.6c-1.1,1.2-1.6,0.8-2.6-0.2
		c-11.3-12.6-22.6-25.1-33.9-37.6c-0.9-1-1.3-2.1-1.2-3.4c0.1-3.3,0-6.6,0-9.9c0-3.4,0.2-6.8-0.1-10.2c-0.2-2.3,1.3-2.2,2.6-2.5
		c2-0.4,1.1,1.2,1.2,2c0.6,4.1,4.1,7,7.7,6.2c3.5-0.7,5.9-4.5,5.2-8c-0.8-4-4.7-6.4-8.6-5.1c-2.3,0.8-4.6,0.1-6.9,0.7
		c-0.3,0.1-1-0.2-1-0.3c-0.1-1.8-0.4-3.6-0.1-5.3c0.2-1.3,1.7-0.7,2.7-0.7c8.2,0,16.3,0.1,24.5-0.1c3.1-0.1,5.4,0.7,7.3,3.3
		c1.4,1.8,4.2,3.4,4.2,5c0,1.7-2.6,3.5-4.3,5c-2.8,2.5-4.5,5.3-5,9.3c-0.7,5.4-2.2,10.8-3.3,16.1c-0.6,2.6,0.5,3.8,3,3.2
		c5-1.2,9.9-2.7,15-3.4c5-0.7,8-3.9,11.1-7.4c1.4-1.6,2.3-1.7,3.7,0C103.1,74.6,106.3,77.8,109.4,81.1z M48.9,52.1
		c0.2-1.8,1.7-2.3,3-2.4c1.6-0.1,2.1,1.3,2.1,2.6c-0.2,2-1.3,2.8-2.9,2.6C49.5,54.7,48.7,53.7,48.9,52.1z M84.2,74
		c-2.6,1.2-5.4,1.8-8.2,2c-1.8,0.1-3.6-1.4-3.2-3.9c0.4-2.7,1.1-5.3,1.7-8.3C78,67.4,81,70.6,84.2,74z M90.3,71.5
		c-1,1.1-1.6,1-2.6-0.1c-3.4-3.7-6.9-7.4-10.4-11c-1.2-1.2-1-1.8,0.1-2.9c6-6.1,11.9-12.3,17.8-18.5c0.7-0.7,1.1-1.4,2.1-0.3
		c3.7,4,7.5,8,11.3,11.9c0.3,0.3,0.5,0.6,0.8,1c-0.4,0.5-0.8,1-1.2,1.5C102.3,59.2,96.3,65.3,90.3,71.5z"/>
</g>
</svg>
