<?xml version="1.0" encoding="utf-8"?>
<!-- Generator: Adobe Illustrator 24.0.0, SVG Export Plug-In . SVG Version: 6.00 Build 0)  -->
<svg version="1.1" id="Layer_1" xmlns="http://www.w3.org/2000/svg" xmlns:xlink="http://www.w3.org/1999/xlink" x="0px" y="0px"
	 viewBox="0 0 448 512" style="enable-background:new 0 0 448 512;" xml:space="preserve">
<style type="text/css">
	.st0{fill:#FFFFFF;}
</style>
<path class="st0" d="M36.4,144.2h375.1c7.9,0,14.4-6.5,14.4-14.4V93.7c0-7.9-6.5-14.4-14.4-14.4H36.4c-7.9,0-14.4,6.5-14.4,14.4
	v36.1C22,137.7,28.5,144.2,36.4,144.2z M36.4,288.5h375.1c7.9,0,14.4-6.5,14.4-14.4V238c0-7.9-6.5-14.4-14.4-14.4H36.4
	C28.5,223.5,22,230,22,238V274C22,282,28.5,288.5,36.4,288.5z M36.4,432.8h375.1c7.9,0,14.4-6.5,14.4-14.4v-36.1
	c0-7.9-6.5-14.4-14.4-14.4H36.4c-7.9,0-14.4,6.5-14.4,14.4v36.1C22,426.3,28.5,432.8,36.4,432.8z"/>
</svg>
