<?xml version="1.0" encoding="utf-8"?>
<!-- Generator: Adobe Illustrator 24.0.0, SVG Export Plug-In . SVG Version: 6.00 Build 0)  -->
<svg version="1.1" id="Layer_1" xmlns="http://www.w3.org/2000/svg" xmlns:xlink="http://www.w3.org/1999/xlink" x="0px" y="0px"
	 viewBox="0 0 128 128" style="enable-background:new 0 0 128 128;" xml:space="preserve">
<style type="text/css">
	.st0{fill:#FFFFFF;}
</style>
<path class="st0" d="M42.69,19.62c0.78,0.06,1.26,0.63,1.71,1.19c1.55,1.96,3.08,3.94,4.62,5.91
	c13.34,16.94,26.68,33.89,40.01,50.83c0.67,0.85,1.35,1.7,1.85,2.68c0.36,0.7,0.32,1.36-0.31,1.86
	c-7.85,6.09-12.93,14.61-19.39,21.93c-0.6,0.68-1.15,1.41-1.79,2.04c-1.13,1.12-1.94,1.13-3.11,0.08c-0.54-0.48-1.06-1-1.52-1.55
	c-8.58-10.18-18.02-19.56-27.12-29.26C26.74,63.73,15.77,52.21,4.85,40.64C3.93,39.67,3,38.69,2.35,37.5
	c-0.81-1.48-0.54-2.51,0.89-3.41c0.8-0.5,1.7-0.81,2.59-1.11c9.53-3.26,19.06-6.51,28.59-9.77c2.27-0.78,4.42-1.81,6.52-2.96
	C41.47,19.95,42.02,19.65,42.69,19.62z"/>
<path class="st0" d="M58.93,11.01c3.38,0.06,6.35,1.35,8.61,4.29c3.87,5.02,7.85,9.97,11.73,14.98c0.62,0.8,1,0.82,1.78,0.21
	c11.32-8.88,22.67-17.73,34.02-26.58c3.7-2.88,8.55-2.15,10.87,1.63c1.92,3.13,1.19,7.03-1.84,9.42
	c-5.9,4.64-11.82,9.24-17.74,13.86c-5.54,4.33-11.07,8.67-16.64,12.97c-0.7,0.54-0.69,0.88-0.17,1.53
	c3.77,4.74,7.34,9.64,11.28,14.23c4.49,5.24,3.23,10.85,0.71,14.86c-1.78,2.84-4.46,4.72-7.04,6.72c-0.63,0.48-0.83-0.11-1.09-0.44
	c-3.08-3.89-6.15-7.8-9.22-11.7C71.49,50.83,58.79,34.68,46.08,18.53c-1.07-1.36-0.91-1.1,0.27-2.04c2.16-1.71,4.29-3.47,6.93-4.43
	C55.03,11.41,56.82,11.02,58.93,11.01z"/>
<path class="st0" d="M42.64,113.05c-0.04,6.77-6.51,12.52-13.22,11.72c-0.7-0.08-1.2,0.04-1.74,0.54c-1.67,1.54-3.69,1.62-5.71,0.95
	c-5.07-1.66-8.27-5.31-10.31-10.07c-0.86-1.99-1.27-4.08-0.79-6.26c0.6-2.76,2.74-4.32,5.56-4.07c1.85,0.17,3.52,0.85,5.03,1.89
	c0.66,0.45,0.98,0.37,1.5-0.22c3.38-3.83,7.55-5.44,12.58-4.06C39.86,104.64,42.67,108.57,42.64,113.05z"/>
<path class="st0" d="M31.91,95.43c-3.67-0.01-5.83-2.77-4.92-6.33c0.94-3.69,4.97-6.81,8.77-6.78c3.63,0.03,5.79,2.87,4.86,6.4
	C39.65,92.38,35.69,95.43,31.91,95.43z"/>
<path class="st0" d="M22.85,74.1c0,2.47-1.82,3.86-4.21,3.24c-2.89-0.75-5.46-3.97-5.54-6.94c-0.06-2.47,1.7-3.92,4.11-3.37
	C20.15,67.69,22.86,71.09,22.85,74.1z"/>
</svg>
