<?xml version="1.0" encoding="utf-8"?>
<!-- Generator: Adobe Illustrator 24.0.0, SVG Export Plug-In . SVG Version: 6.00 Build 0)  -->
<svg version="1.1" id="Layer_1" xmlns="http://www.w3.org/2000/svg" xmlns:xlink="http://www.w3.org/1999/xlink" x="0px" y="0px"
	 viewBox="0 0 156 128" style="enable-background:new 0 0 156 128;" xml:space="preserve">
<style type="text/css">
	.st0{fill:#919090;}
</style>
<path class="st0" d="M5,25.4h103.6c2.2,0,4-2.3,4-5V7.9c0-2.8-1.8-5-4-5H5c-2.2,0-4,2.3-4,5v12.6C1,23.2,2.8,25.4,5,25.4z M28,75.7
	h103.6c2.2,0,4-2.3,4-5V58.1c0-2.8-1.8-5-4-5H28c-2.2,0-4,2.2-4,5v12.5C24,73.4,25.8,75.7,28,75.7z M47,125.9h103.6c2.2,0,4-2.3,4-5
	v-12.6c0-2.8-1.8-5-4-5H47c-2.2,0-4,2.3-4,5v12.6C43,123.7,44.8,125.9,47,125.9z"/>
</svg>
