<?xml version="1.0" encoding="utf-8"?>
<!-- Generator: Adobe Illustrator 24.0.0, SVG Export Plug-In . SVG Version: 6.00 Build 0)  -->
<svg version="1.1" id="Layer_1" xmlns="http://www.w3.org/2000/svg" xmlns:xlink="http://www.w3.org/1999/xlink" x="0px" y="0px"
	 viewBox="0 0 128 128" style="enable-background:new 0 0 128 128;" xml:space="preserve">
<style type="text/css">
	.st0{fill:#FFFFFF;}
</style>
<path class="st0" d="M28.48,16.96c0-0.99,0.05-1.98-0.01-2.96c-0.11-1.82-1.52-3.01-3.43-2.98c-1.91,0.03-3.3,1.28-3.35,3.09
	c-0.05,1.87-0.04,3.74,0,5.6c0.01,0.64-0.12,0.85-0.8,0.84c-1.76-0.05-3.52-0.03-5.29-0.01c-2.14,0.03-3.45,1.36-3.44,3.43
	c0.01,2.05,1.37,3.39,3.48,3.41c1.76,0.01,3.52,0.02,5.29-0.01c0.6-0.01,0.77,0.16,0.76,0.76c-0.04,1.76-0.02,3.52-0.01,5.29
	c0.01,2.12,1.34,3.47,3.4,3.49c2.05,0.01,3.39-1.32,3.43-3.45c0.03-1.65,0.06-3.31-0.01-4.97c-0.04-0.86,0.16-1.16,1.07-1.12
	c1.69,0.08,3.38,0.03,5.07,0.02c2.06-0.02,3.36-1.34,3.37-3.38c0.01-2.06-1.26-3.41-3.3-3.45c-1.8-0.03-3.59-0.04-5.39,0.01
	c-0.66,0.02-0.86-0.19-0.82-0.84c0.05-0.91,0.01-1.83,0.01-2.75C28.5,16.96,28.49,16.96,28.48,16.96z"/>
<path class="st0" d="M75.01,122.61c0-1.78,0-1.78,1.75-1.78c0.35,0,0.7,0.01,1.06,0c1.88-0.07,3.17-1.4,3.24-3.33
	c0.06-1.85-1.14-3.31-2.95-3.49c-0.8-0.08-1.62-0.06-2.43-0.03c-0.5,0.02-0.69-0.15-0.67-0.66c0.03-0.81,0.03-1.62-0.02-2.43
	c-0.13-1.75-1.51-2.93-3.38-2.93c-1.85,0-3.27,1.19-3.39,2.92c-0.06,0.81-0.05,1.62-0.01,2.43c0.02,0.51-0.14,0.69-0.65,0.66
	c-0.7-0.04-1.41-0.04-2.11,0c-2.01,0.09-3.34,1.52-3.28,3.5c0.06,2.03,1.39,3.33,3.43,3.35c0.81,0.01,1.81-0.27,2.37,0.11
	c0.62,0.42,0.2,1.49,0.22,2.28c0.05,2.3,1.29,3.63,3.46,3.61c2.11-0.01,3.35-1.33,3.38-3.58C75.01,123.03,75.01,122.82,75.01,122.61
	z"/>
<path class="st0" d="M37.28,45.5c0.06,1.5,1.07,2.74,2.5,3.19c18.28,5.79,30.37,17.88,36.45,36.02c0.71,2.11,1.7,3.04,3.5,3.04
	c1.77,0,2.86-0.92,3.47-2.94c2.26-7.49,6.02-14.16,11.21-20.01c6.81-7.68,15.11-13.08,24.96-16.07c2.12-0.64,3.11-2.09,2.77-4.09
	c-0.26-1.47-1.2-2.29-2.62-2.72c-9.94-3.02-18.35-8.45-25.21-16.24c-5.14-5.84-8.87-12.48-11.12-19.94
	c-0.58-1.93-1.63-2.85-3.29-2.9c-1.85-0.06-3.01,0.85-3.62,2.88c-1.93,6.45-4.98,12.31-9.16,17.58
	c-7.07,8.91-16.05,15.05-26.88,18.51C38.11,42.48,37.2,43.62,37.28,45.5z M50.21,45.25c13.22-6.49,23.07-16.17,29.51-29.39
	c6.44,13.2,16.22,22.96,29.41,29.43c-13.22,6.48-22.98,16.25-29.42,29.42C73.25,61.49,63.46,51.71,50.21,45.25z"/>
<path class="st0" d="M0.95,98.51c0.09,1.67,1.19,2.82,2.87,3.33c6.18,1.87,11.23,5.43,15.27,10.45c2.52,3.14,4.33,6.65,5.49,10.5
	c0.49,1.62,1.75,2.54,3.36,2.53c1.67-0.02,2.8-0.95,3.38-2.8c2.02-6.5,5.79-11.76,11.19-15.87c2.97-2.26,6.27-3.86,9.83-4.97
	c2.07-0.65,3.03-2.65,2.26-4.6c-0.4-1.02-1.14-1.66-2.18-1.99c-10.69-3.43-17.75-10.5-21.22-21.17c-0.52-1.59-1.7-2.47-3.29-2.48
	c-1.57-0.01-2.83,0.89-3.32,2.45C21.23,84.57,14,91.44,3.5,95.04C1.84,95.61,0.87,96.93,0.95,98.51z M13.03,98.3
	c6.31-3.6,11.25-8.44,14.88-14.76c3.61,6.3,8.51,11.2,14.83,14.83c-6.31,3.62-11.22,8.53-14.82,14.8
	C23.31,105.89,20.89,103.47,13.03,98.3z"/>
<path class="st0" d="M89.06,98.31c-0.02,1.55,1.05,3.06,2.46,3.45c4.91,1.35,8.48,4.41,11.04,8.72c0.72,1.21,1.22,2.53,1.66,3.87
	c0.51,1.56,1.75,2.48,3.29,2.48c1.55,0,2.79-0.92,3.3-2.47c2.08-6.37,6.3-10.59,12.66-12.68c1.58-0.52,2.48-1.71,2.5-3.27
	c0.02-1.58-0.93-2.82-2.55-3.35c-6.32-2.09-10.52-6.29-12.6-12.61c-0.52-1.59-1.68-2.49-3.26-2.52c-1.56-0.03-2.84,0.86-3.33,2.41
	c-2.05,6.46-6.44,10.57-12.76,12.75C89.96,95.6,89.08,96.79,89.06,98.31z M100.31,98.32c2.84-1.94,5.25-4.25,7.2-7.1
	c1.96,2.89,4.32,5.19,7.13,7.15c-2.87,1.95-5.19,4.31-7.13,7.12C105.53,102.61,103.18,100.27,100.31,98.32z"/>
</svg>
