<?xml version="1.0" encoding="utf-8"?>
<!-- Generator: Adobe Illustrator 24.0.0, SVG Export Plug-In . SVG Version: 6.00 Build 0)  -->
<svg version="1.1" id="Layer_1" xmlns="http://www.w3.org/2000/svg" xmlns:xlink="http://www.w3.org/1999/xlink" x="0px" y="0px"
	 viewBox="0 0 128 128" style="enable-background:new 0 0 128 128;" xml:space="preserve">
<style type="text/css">
	.st0{fill:#FFFFFF;}
</style>
<g>
	<g>
		<path class="st0" d="M5.52,123.72h1.04C6.2,123.76,5.8,123.81,5.52,123.72z"/>
		<path class="st0" d="M14.62,103.35L14.62,103.35L14.62,103.35c1.34-1.08,1.55-2.73,2.09-4.21c0.15,0.16,0.43,0.45,0.43,0.48
			c-1.04,1.14-0.77,2.91-1.92,3.98C15.15,103.66,14.82,103.45,14.62,103.35z"/>
		<path class="st0" d="M15.03,112.85c-0.77-0.77-0.61-1.63-0.27-2.52c0.35,0.09,0.12,0.55,0.33,0.64c0.39,0.18,0.27-0.25,0.31-0.39
			c0.33-1.05,0.85-1.96,1.76-2.6c-0.03-0.58-0.36-1.28,0.59-1.47c-0.43,0.39-0.5,0.93-0.59,1.46c0,0.01,0,0.01,0,0.02v0
			c-0.6,0.87-1.1,1.78-1.49,2.76C15.29,111.73,14.99,112.46,15.03,112.85z"/>
		<path class="st0" d="M17.26,103.41c0.69,0.21,0.86,0.52,0.81,0.97C17.54,104.36,17.49,103.92,17.26,103.41z"/>
		<path class="st0" d="M16.95,98.48c0.77-0.5,1.13-1.23,1.13-2.14C18.74,97.6,18.05,98.15,16.95,98.48z"/>
		<path class="st0" d="M19.89,101.7c-0.37-0.67-0.49-1.37-0.28-2.16c0.5,0.37,0.02,1.13,0.61,1.41c-0.84-0.19-0.46-0.73-0.47-1.09
			C19.32,100.41,20.08,101.05,19.89,101.7z"/>
		<path class="st0" d="M20.22,100.96L20.22,100.96c-0.38-0.92,0.7-1.85,0.01-2.76c0.12-0.03,0.24-0.06,0.36,0.02
			C21.08,99.21,20.23,100.03,20.22,100.96L20.22,100.96L20.22,100.96z"/>
		<path class="st0" d="M20.22,100.97C20.22,100.96,20.22,100.96,20.22,100.97L20.22,100.97C20.22,100.96,20.22,100.96,20.22,100.97z
			"/>
		<path class="st0" d="M20.21,98.17C20.21,98.17,20.21,98.17,20.21,98.17C20.21,98.17,20.21,98.17,20.21,98.17
			c0.39-0.6,0.29-1.49,1.12-1.87c0.44,0.54-0.57,0.76-0.28,1.25c0.4,0.1,0.53-0.35,0.85-0.42c-0.13,0.25-0.27,0.5-0.53,0.64
			c-0.33,0.17-0.52,0.06-0.59-0.3C20.71,97.81,20.49,98.02,20.21,98.17z"/>
		<path class="st0" d="M114.05,119.73c-0.52,0.55-1.2,0.32-1.81,0.32c-32.39,0.01-64.78,0.01-97.17,0c-0.61,0-1.29,0.22-1.81-0.32
			c0.61,0.29,1.25,0.15,1.88,0.15c32.34,0.01,64.69,0.01,97.03,0C112.8,119.89,113.45,120.04,114.05,119.73z"/>
		<path class="st0" d="M115.28,108.79c-0.17-0.1-0.32-0.3-0.39-0.48c-0.06-0.17,0.1-0.36,0.28-0.26c0.17,0.09,0.28,0.31,0.36,0.4
			C115.57,108.77,115.45,108.89,115.28,108.79z"/>
		<path class="st0" d="M116.8,119.61c-0.36,0.99-0.82,0.98-1.35,0.13C115.93,120.05,116.4,120.2,116.8,119.61z"/>
		<path class="st0" d="M88.25,103c-13.09,4.73-26.5,4.89-40.05,2.78c-4.12-0.64-8.15-1.71-11.68-4.12
			c-0.87-0.59-1.65-1.27-2.26-2.13c-1.56-2.19-1.37-4.14,0.55-6.04c1.77-1.75,3.97-2.8,6.26-3.63c5.49-1.98,11.19-2.83,17.01-2.88
			c1.4-0.19,2.81-0.07,4.21-0.09c0.32,0,0.71-0.04,0.67,0.48c-5.23,0.53-10.48,0.94-15.56,2.47c-2.33,0.7-4.6,1.55-6.59,3
			c-3.2,2.32-3.18,4.91,0.09,7.19c2.67,1.86,5.76,2.66,8.91,3.16c10.11,1.58,20.17,1.6,30.1-1.21c2.51-0.71,4.92-1.69,7.02-3.29
			c3.3-2.53,3.39-5.71,0.22-8.41c-2.39-2.03-5.26-3.09-8.24-3.9c-6.78-1.84-13.7-2.1-20.66-1.84c-0.74,0.03-1.48,0-2.43,0
			c1.41-1.84,2.84-3.14,5.27-3.14c8.95,0,17.81,0.56,26.27,3.87c2.71,1.06,5.27,2.41,7.26,4.6c2.91,3.2,2.74,6.46-0.39,9.45
			c-1.14,1.09-2.56,1.77-3.82,2.68C89.81,102.55,89,102.72,88.25,103z"/>
		<path class="st0" d="M123.41,122.85c-0.07-0.45-0.09-0.93-0.32-1.34c-0.12-0.25-0.24-0.5-0.36-0.75c-0.44-0.67-1.1-1.24-0.99-2.16
			c-0.04-0.17-0.04-0.35-0.11-0.5c-7.5-15.31-15.02-30.62-22.49-45.95c-0.44-0.9-1-1.06-1.89-1.06c-5.04,0.03-10.08,0.18-15.11-0.05
			c-2.56-0.12-4.35,0.75-5.92,2.6c0.51,0.42,1.11,0.2,1.64,0.2c5.85,0.02,11.7,0.04,17.55-0.01c1.05-0.01,1.58,0.24,2.03,1.29
			c4.41,10.18,8.94,20.32,13.35,30.5c2.02,4.66,4.29,9.21,6,13.99c-0.36,0.99-0.82,0.98-1.35,0.13c-0.47,0-0.93,0-1.39,0
			c-0.52,0.55-1.2,0.32-1.81,0.32c-32.39,0.01-64.78,0.01-97.17,0c-0.61,0-1.29,0.22-1.81-0.32c-0.34-0.01-0.68-0.02-1.01-0.02
			c-0.36-0.12-0.23-0.23,0-0.34l0.08-0.1l-0.06-0.11c0.02-0.98,0.54-1.84,0.67-2.8c0.07-0.5,0.45,0.07,0.64-0.12
			c0.14-0.32,0.27-0.64,0.4-0.96c-0.03-0.88,0.45-1.53,0.97-2.17c0.11-0.06,0.14-0.14,0.08-0.25c-0.77-0.77-0.61-1.63-0.27-2.52
			c0.35,0.09,0.12,0.55,0.33,0.64c0.39,0.18,0.27-0.25,0.31-0.39c0.33-1.05,0.85-1.96,1.76-2.6c-0.03-0.58-0.36-1.28,0.59-1.47
			c0.71-1.6,1.42-3.2,2.13-4.81c-0.37-0.67-0.49-1.37-0.28-2.16c0.5,0.37,0.02,1.13,0.61,1.41c-0.38-0.92,0.7-1.84,0.01-2.76
			c-0.02,0-0.04,0.01-0.05,0.01c0.01-0.01,0.01-0.02,0.02-0.04c0,0,0,0,0-0.01c0.39-0.59,0.29-1.48,1.13-1.87
			c0.44,0.54-0.57,0.76-0.28,1.25c0.4,0.1,0.53-0.35,0.85-0.42c0.25-0.61,0.49-1.22,0.73-1.84c0.51-0.28,0.53-0.85,0.73-1.31
			c2.74-6.24,5.48-12.47,8.16-18.73c0.44-1.02,0.91-1.47,2.12-1.45c4.51,0.09,9.02,0.04,13.53,0.04c2.65,0,2.73-0.06,3.55-2.75
			c-6.55,0-13.07,0.01-19.59-0.02c-0.67,0-0.89,0.35-1.13,0.83L18.34,95.69c-0.28,0.14-0.27,0.39-0.26,0.65
			c0.66,1.26-0.03,1.81-1.13,2.14c-0.28,0.15-0.26,0.41-0.25,0.67c0.15,0.16,0.43,0.45,0.43,0.48c-1.04,1.14-0.77,2.91-1.92,3.98
			c-0.07,0.06-0.39-0.15-0.59-0.25c-0.24,0.47,0.08,1.22-0.74,1.38c-0.94,1.55-1.83,3.12-2.38,4.85c-0.08,0.25-0.14,0.52-0.23,0.77
			c-0.09,0.25-0.22,0.48-0.45,0.67c-0.11,0.54-0.32,1.01-0.76,1.37c-0.45,0.43-0.71,0.95-0.69,1.59c-0.09,0.57-0.29,1.44,0.37,1.48
			c1.63,0.12,1.35,1.32,1.61,2.23c-0.81-1.2-2.03-1.2-3.29-1.11c-0.28,0.22-0.46,0.49-0.42,0.87c-0.15,0.56-0.03,1.18-0.2,1.68
			c-0.41,1.19-0.3,2.81-2.13,3.01l-0.11,0.08l0.02,0.14c-0.25,0.89-0.06,1.23,0.3,1.35h1.04c0.15-0.02,0.29-0.03,0.41-0.03
			c37.47,0.02,74.93,0.02,112.4,0.02c0.55,0,1.11-0.03,1.48,0.01H6.55c-0.35,0.04-0.75,0.09-1.04,0H5.35
			c-0.01,0.17-0.02,0.34-0.03,0.51c0.77,0.57,1.7,0.34,2.56,0.34c37.17,0.01,74.35,0.01,111.53,0.01c0.75,0,1.5-0.03,2.26,0.03
			C123.33,124.74,123.64,124.44,123.41,122.85z M115.28,108.79c-0.17-0.1-0.32-0.3-0.39-0.48c-0.06-0.17,0.1-0.36,0.28-0.26
			c0.17,0.09,0.28,0.31,0.36,0.4C115.57,108.77,115.45,108.89,115.28,108.79z M18.07,104.38c-0.53-0.02-0.57-0.46-0.81-0.97
			C17.95,103.62,18.12,103.92,18.07,104.38z"/>
		<path class="st0" d="M70.38,74.44c-1.81,0.27-3.61,0.6-5.43,0.78c-3.02,0.31-5.12,2.23-7.33,3.98c-1.36,1.07-2.66,0.88-4.24-0.55
			c-1.61-1.46-2.05-2.69-1.03-4.01c2.32-3,3.11-6.34,2.77-10.05c-0.09-0.96-0.01-1.94,0.15-2.97
			C58.52,68.04,63.45,72.28,70.38,74.44z"/>
		<path class="st0" d="M114.05,119.73c-0.52,0.55-1.2,0.32-1.81,0.32c-32.39,0.01-64.78,0.01-97.17,0c-0.61,0-1.29,0.22-1.81-0.32
			c0.46-0.03,0.92-0.08,1.38-0.08c32.68-0.01,65.36-0.01,98.03,0C113.13,119.65,113.6,119.71,114.05,119.73z"/>
		<path class="st0" d="M50.98,77.52c0.88,1.73,2.19,2.79,3.93,3.38c-0.19,0.26-0.32,0.45-0.47,0.62c-2.71,3.27-2.66,3.24-5.13-0.12
			c-0.65-0.89-0.64-1.45,0.12-2.16C49.98,78.74,50.43,78.15,50.98,77.52z"/>
		<path class="st0" d="M9.38,113.99c0.21,0.52,0.23,0.91,1.09,1.15c1.47,0.42,1.46,1.87,0.85,3.4c-0.36-2.07-2.28-1.1-3.24-1.95
			C8.38,115.66,8.77,114.77,9.38,113.99z"/>
		<path class="st0" d="M7.65,117.46c0.63,1.71-0.06,3.13-0.9,4.59c-0.54,0.93-0.93,0.46-1.44,0.11
			C5.98,120.53,6.72,118.95,7.65,117.46z"/>
		<path class="st0" d="M17.19,107.95c0,0,0,0.01,0,0.01c-0.58,1.69-1.26,3.33-2.15,4.89c-0.77-0.77-0.61-1.63-0.27-2.52
			c0.35,0.09,0.12,0.55,0.33,0.64c0.39,0.18,0.27-0.25,0.31-0.39c0.33-1.05,0.85-1.96,1.76-2.6c0,0,0,0,0-0.01
			C17.17,107.96,17.18,107.96,17.19,107.95z"/>
		<path class="st0" d="M17.14,99.62c-1.04,1.14-0.77,2.91-1.92,3.98c-0.07,0.06-0.39-0.15-0.59-0.25h0l0,0
			c0.51-1.49,1.25-2.87,2.09-4.21C16.85,99.31,17.14,99.59,17.14,99.62z"/>
		<path class="st0" d="M21.9,97.13c-0.4,1.35-0.95,2.62-1.67,3.83c0,0,0,0,0,0.01c0,0,0,0,0-0.01v0c-0.38-0.92,0.7-1.84,0.01-2.76
			c-0.01-0.01-0.01-0.02-0.02-0.02l0,0c0.39-0.59,0.29-1.48,1.13-1.87c0.44,0.54-0.57,0.76-0.28,1.25
			C21.45,97.65,21.58,97.2,21.9,97.13z"/>
		<path class="st0" d="M13.22,117.55c-0.3,0.17-0.34,0.46-0.33,0.77c-0.21,0.28-0.41,0.56-0.62,0.84c-0.56-1.39,0.19-2.52,0.69-3.8
			c0.26,0.36,0.44,0.62,0.63,0.87C13.46,116.67,13.34,117.11,13.22,117.55z"/>
		<path class="st0" d="M122.73,120.76c-0.34-0.72-2.36-0.66-0.99-2.16C122.22,119.25,122.65,119.92,122.73,120.76z"/>
		<path class="st0" d="M13.99,115.28c-0.39-0.85,0.02-1.78,0.96-2.17C14.78,113.9,14.46,114.62,13.99,115.28z"/>
		<path class="st0" d="M16.95,98.48c0.38-0.71,0.76-1.43,1.13-2.14C18.74,97.6,18.05,98.15,16.95,98.48z"/>
		<path class="st0" d="M14.62,103.34c-0.13,0.54,0.81,0.74,0.45,1.28c-0.29,0.44-0.77,0.34-1.19,0.12
			C14.05,104.23,14.2,103.72,14.62,103.34z"/>
		<path class="st0" d="M20.22,100.96c0.01,0.31-0.06,0.57-0.34,0.74c-0.37-0.67-0.49-1.37-0.28-2.16
			C20.11,99.92,19.63,100.67,20.22,100.96L20.22,100.96L20.22,100.96L20.22,100.96C20.22,100.96,20.22,100.96,20.22,100.96z"/>
		<path class="st0" d="M11.5,109.59c0.21,0.68,0.39,1.36-0.68,1.43C10.92,110.49,11.15,110.01,11.5,109.59z"/>
		<path class="st0" d="M10.83,111.03c0.42,0.83-0.17,1.1-0.76,1.37C10.32,111.94,10.57,111.48,10.83,111.03z"/>
		<path class="st0" d="M17.19,107.97c-0.01,0.01-0.01,0.01-0.02,0.02v-0.01c-0.03-0.58-0.36-1.28,0.59-1.47
			C17.81,107.09,17.51,107.54,17.19,107.97z"/>
		<path class="st0" d="M116.8,119.61c-0.36,0.99-0.82,0.98-1.35,0.13C115.9,119.69,116.35,119.65,116.8,119.61z"/>
		<path class="st0" d="M12.25,119.71c-0.31,0.09-0.62,0.34-0.89-0.06c-0.05-0.08-0.04-0.21-0.06-0.31c0.32,0.01,0.63,0.02,0.95,0.03
			C12.25,119.48,12.25,119.6,12.25,119.71z"/>
		<path class="st0" d="M7.79,121.3c0.53,0.41,0.49,0.81,0.19,1.21c-0.04,0.06-0.33,0.03-0.4-0.04
			C7.19,121.99,7.66,121.71,7.79,121.3z"/>
		<path class="st0" d="M15.89,105.33c0.24-0.01,0.52-0.01,0.35,0.34c-0.08,0.17-0.31,0.34-0.5,0.37c-0.28,0.05-0.38-0.2-0.35-0.45
			C15.42,105.27,15.68,105.33,15.89,105.33z"/>
		<path class="st0" d="M18.07,104.38c-0.53-0.02-0.57-0.46-0.81-0.97C17.95,103.62,18.12,103.92,18.07,104.38z"/>
		<path class="st0" d="M115.28,108.79c-0.17-0.1-0.32-0.3-0.39-0.48c-0.06-0.17,0.1-0.36,0.28-0.26c0.17,0.09,0.28,0.31,0.36,0.4
			C115.57,108.77,115.45,108.89,115.28,108.79z"/>
		<path class="st0" d="M12.36,109.19c0.3,0.49,0.17,0.83,0.1,1.29C12.13,110.03,12.18,109.68,12.36,109.19z"/>
		<path class="st0" d="M47.6,104.03c0.98,0.06,1.41,0.09,2.12,0.13C48.94,104.48,48.47,104.52,47.6,104.03z"/>
	</g>
	<path class="st0" d="M120.07,13.25c-2.38-5.42-6.49-8.99-12.17-10.48c-3.31-0.87-6.33,2.01-6.33,2.01l-2.41,2.7l-0.69,0.8
		c-0.31,0.41-0.61,0.83-0.95,1.23C84.83,24.3,72.15,39.11,59.39,53.85c-1.73,2-2.19,4.08-1.22,6.38c2.43,5.74,6.67,9.47,12.81,10.89
		c2.36,0.55,4.21-0.19,5.82-2.08c14.02-16.4,28.08-32.78,42.18-49.1C120.81,17.83,121.14,15.68,120.07,13.25z M88.75,44.34
		C80.22,53.3,68.5,63,66.94,61.56c-1.49-1.38,6.47-12.99,14.44-21.76c9.77-10.75,22.48-20.47,24.06-18.95
		C107.01,22.38,97.5,35.14,88.75,44.34z M115.86,17.93c-4.6-0.14-11.09-5.73-11.92-10.27c-0.37-2.04,0.26-2.75,2.38-2.66
		c4.52,0.19,10.96,5.73,11.84,10.17C118.57,17.22,117.92,18,115.86,17.93z"/>
</g>
</svg>
