<?xml version="1.0" encoding="utf-8"?>
<!-- Generator: Adobe Illustrator 24.0.0, SVG Export Plug-In . SVG Version: 6.00 Build 0)  -->
<svg version="1.1" id="Layer_1" xmlns="http://www.w3.org/2000/svg" xmlns:xlink="http://www.w3.org/1999/xlink" x="0px" y="0px"
	 viewBox="0 0 128 128" style="enable-background:new 0 0 128 128;" xml:space="preserve">
<style type="text/css">
	.st0{fill:#FFFFFF;}
</style>
<path class="st0" d="M92.48,23.14C90.03,12.1,79.57,3.25,66.09,2.96c-9.67-0.21-17.67,3.32-23.49,10.53
	c-4.71,5.83-6.48,12.4-4.77,19.53c1.09,4.54,6.34,12.31,6.37,12.37c4.17,7.2,21.33,25.33,21.33,25.33s11.3-14.19,13.69-17.25
	c5.28-6.74,6.79-8.35,10.78-15.86C92.44,33,93.63,28.3,92.48,23.14z M65.77,39.58c-7.89,0.21-14.43-5.3-14.6-12.33
	c-0.17-7.02,6.09-12.88,13.98-13.1c7.89-0.21,14.43,5.3,14.6,12.33C79.92,33.5,73.66,39.36,65.77,39.58z"/>
<path class="st0" d="M64.01,125.78c-18.44,0-36.88,0-55.31,0c-5.17,0-6.75-1.56-6.76-6.73c-0.01-12.09,0.02-24.18-0.02-36.27
	c-0.01-2.71,0.8-4.88,3.4-5.77c3.28-1.13,6.07,1.31,6.09,5.29c0.04,10.23,0.09,20.46-0.04,30.69c-0.03,2.39,0.49,3.09,2.92,3.08
	c33.14-0.09,66.29-0.09,99.43,0c2.42,0.01,2.97-0.66,2.93-3.07c-0.14-9.99-0.07-19.99-0.06-29.99c0-4.2,1.56-6.18,4.75-6.15
	c3.13,0.03,4.72,2.1,4.72,6.26c0.01,12.09,0.02,24.18,0,36.27c-0.01,4.73-1.69,6.39-6.4,6.39
	C101.11,125.79,82.56,125.78,64.01,125.78z"/>
<path class="st0" d="M95.53,79.27c-1.64-1.4-3.35-1.27-4.93,0.21c-0.55,0.52-1.07,1.08-1.6,1.62c-6.25,6.42-12.48,12.85-18.75,19.24
	c-0.15,0.15-0.28,0.35-0.42,0.54c-0.44,0.58-1.37,0.27-1.37-0.46c0-3.06,0-12.87,0-20.96h-6.81v20.82c0,0.67-0.81,1.02-1.29,0.55
	c-0.33-0.31-0.61-0.59-0.88-0.87c-6.43-6.6-12.84-13.2-19.27-19.8c-2.04-2.09-4.12-2.4-5.67-0.91c-1.71,1.65-1.47,3.7,0.74,5.98
	c8.83,9.09,17.67,18.18,26.52,27.25c2.47,2.54,4.05,2.53,6.54-0.02c6.44-6.59,12.85-13.2,19.28-19.8c2.65-2.72,5.35-5.41,7.94-8.19
	C97.12,82.79,97.1,80.62,95.53,79.27z"/>
</svg>
