<?xml version="1.0" encoding="utf-8"?>
<!-- Generator: Adobe Illustrator 24.0.0, SVG Export Plug-In . SVG Version: 6.00 Build 0)  -->
<svg version="1.1" id="Layer_1" xmlns="http://www.w3.org/2000/svg" xmlns:xlink="http://www.w3.org/1999/xlink" x="0px" y="0px"
	 viewBox="0 0 16 16" style="enable-background:new 0 0 16 16;" xml:space="preserve">
<style type="text/css">
	.st0{fill-rule:evenodd;clip-rule:evenodd;fill:#FFFFFF;}
</style>
<path class="st0" d="M11,4C8.79,4,7,5.79,7,8s1.79,4,4,4s4-1.79,4-4S13.21,4,11,4z M6.03,7.5C6.3,4.75,8.75,2.75,11.5,3.03
	s4.75,2.73,4.47,5.47s-2.73,4.75-5.47,4.47c-2.37-0.24-4.24-2.11-4.47-4.47H4C4,9.33,3.33,10,2.5,10h-1C0.67,10,0,9.33,0,8.5v-1
	C0,6.67,0.67,6,1.5,6h1C3.33,6,4,6.67,4,7.5H6.03z M11,5c0.28,0,0.5,0.22,0.5,0.5v2h2C13.78,7.5,14,7.72,14,8
	c0,0.28-0.22,0.5-0.5,0.5h-2v2c0,0.28-0.22,0.5-0.5,0.5s-0.5-0.22-0.5-0.5v-2h-2C8.22,8.5,8,8.28,8,8c0-0.28,0.22-0.5,0.5-0.5h2v-2
	C10.5,5.22,10.72,5,11,5z M1.5,7C1.22,7,1,7.22,1,7.5v1C1,8.78,1.22,9,1.5,9h1C2.78,9,3,8.78,3,8.5v-1C3,7.22,2.78,7,2.5,7H1.5z"/>
</svg>
