<?xml version="1.0" encoding="utf-8"?>
<!-- Generator: Adobe Illustrator 24.0.0, SVG Export Plug-In . SVG Version: 6.00 Build 0)  -->
<svg version="1.1" id="Layer_1" xmlns="http://www.w3.org/2000/svg" xmlns:xlink="http://www.w3.org/1999/xlink" x="0px" y="0px"
	 viewBox="0 0 128 128" style="enable-background:new 0 0 128 128;" xml:space="preserve">
<style type="text/css">
	.st0{fill:#FFFFFF;}
</style>
<path class="st0" d="M125.07,95.83c-0.21-0.43-0.11-0.9-0.11-1.35c-0.01-22.05-0.01-44.09,0-66.14c0-0.45-0.11-0.91,0.12-1.35
	c0.04-2.11-0.92-3.79-2.36-5.19c-5.19-5.06-10.31-10.17-15.36-15.37c-1.5-1.55-3.35-2.48-5.59-2.46c-0.29,0.18-0.62,0.12-0.93,0.12
	c-8.7,0-17.4,0-26.09,0c-0.31,0-0.64,0.06-0.93-0.12C73.55,3.95,73.28,3.92,73,3.92c-18.27,0-36.54,0-54.81,0
	c-0.68,0-1.37,0.01-2.05,0.06C8.06,4.53,2.64,10.2,2.78,17.94c0.25,0.48,0.13,0.99,0.13,1.48c0.01,30.55,0.01,61.1,0,91.65
	c0,0.49,0.11,1.01-0.12,1.48c-0.12,7.82,6.04,13.87,13.97,13.71c0.47-0.25,0.99-0.13,1.48-0.13c30.46-0.01,60.92-0.01,91.39,0
	c0.49,0,1.01-0.13,1.48,0.13c6.96,0.16,12.78-4.54,13.67-11.45C125.6,108.53,125.03,102.16,125.07,95.83z M37.03,21.24
	c0.01-2.17,0.01-4.34,0.03-6.52c0.01-2.11,0.37-2.63,2.26-3.33c0.36-0.3,0.79-0.16,1.19-0.16c15.61-0.01,31.23-0.01,46.84,0
	c0.39,0,0.83-0.15,1.18,0.17c1.82,0.68,2.25,1.26,2.23,3.25c-0.1,8.84-0.1,17.69,0,26.53c0.03,2.09-0.45,2.67-2.47,3.32
	c-0.36,0.3-0.79,0.16-1.19,0.16c-15.13,0.01-30.27,0.01-45.4,0c-0.36,0-0.73,0.08-1.07-0.12c-0.09,0-0.19,0-0.28,0
	c-0.26,0.15-0.52,0.2-0.76-0.04c-2.12-0.69-2.52-1.25-2.53-3.57c-0.01-2-0.01-4-0.02-6.01c-0.24-3.66-0.06-7.33-0.1-11
	C36.92,23.04,36.8,22.13,37.03,21.24z M103.96,104.91c0,0.77-0.07,1.55-0.2,2.31c-0.51,3.02-2.05,4.45-5.1,4.81
	c-0.45,0.05-0.9,0.14-1.34,0.21c-0.41,0.32-0.88,0.16-1.32,0.16c-21.37,0.01-42.75,0.01-64.12,0c-0.44,0-0.92,0.16-1.32-0.16
	c-0.31-0.06-0.62-0.14-0.94-0.17c-3.86-0.4-5.65-2.12-5.71-6c-0.19-11.51-0.2-23.03,0.01-34.54c0.07-3.97,1.98-5.78,6.07-5.84
	c6.94-0.11,13.89-0.07,20.84-0.07c15.13,0,30.25,0.01,45.38,0.01c1.19,0,2.37,0.05,3.54,0.31c2.2,0.49,3.5,1.84,3.96,4.03
	c0.23,1.12,0.29,2.26,0.29,3.41C103.97,83.89,103.98,94.4,103.96,104.91z"/>
<path class="st0" d="M85.26,41.21H75.5c-1.08,0-1.95-0.87-1.95-1.95V16.95c0-1.08,0.87-1.95,1.95-1.95h9.76
	c1.08,0,1.95,0.87,1.95,1.95v22.31C87.21,40.33,86.34,41.21,85.26,41.21z"/>
<path class="st0" d="M84.75,84.56H30.44c-0.24,0-0.42-0.23-0.42-0.52v-2.31c0-0.29,0.19-0.52,0.42-0.52h54.31
	c0.24,0,0.42,0.23,0.42,0.52v2.31C85.18,84.33,84.98,84.56,84.75,84.56z"/>
<path class="st0" d="M97.29,101.59H30.72c-0.29,0-0.52-0.23-0.52-0.52v-2.31c0-0.29,0.23-0.52,0.52-0.52h66.57
	c0.29,0,0.52,0.23,0.52,0.52v2.31C97.81,101.36,97.57,101.59,97.29,101.59z"/>
</svg>
