<?xml version="1.0" encoding="utf-8"?>
<!-- Generator: Adobe Illustrator 24.0.0, SVG Export Plug-In . SVG Version: 6.00 Build 0)  -->
<svg version="1.1" id="Layer_1" xmlns="http://www.w3.org/2000/svg" xmlns:xlink="http://www.w3.org/1999/xlink" x="0px" y="0px"
	 viewBox="0 0 128 128" style="enable-background:new 0 0 128 128;" xml:space="preserve">
<style type="text/css">
	.st0{fill:#FFFFFF;}
</style>
<g>
	<path class="st0" d="M3,71l1.2,1.2c2.6,2.6,6.8,2.6,9.3,0l43.9-43.9c2.6-2.6,2.6-6.8,0-9.3l-1.2-1.2c-2.6-2.6-6.8-2.6-9.3,0L3,61.7
		C0.5,64.3,0.5,68.4,3,71z"/>
	<path class="st0" d="M50.9,120.4h1.7c3.7,0,6.6-3,6.6-6.6v-91c0-3.7-3-6.6-6.6-6.6h-1.7c-3.7,0-6.6,3-6.6,6.6v91
		C44.3,117.5,47.3,120.4,50.9,120.4z"/>
</g>
<g>
	<path class="st0" d="M124.8,65l-1.2-1.2c-2.6-2.6-6.8-2.6-9.3,0l-43.9,43.9c-2.6,2.6-2.6,6.8,0,9.3l1.2,1.2c2.6,2.6,6.8,2.6,9.3,0
		l43.9-43.9C127.4,71.7,127.4,67.6,124.8,65z"/>
	<path class="st0" d="M76.9,15.6h-1.7c-3.7,0-6.6,3-6.6,6.6v91c0,3.7,3,6.6,6.6,6.6h1.7c3.7,0,6.6-3,6.6-6.6v-91
		C83.5,18.5,80.6,15.6,76.9,15.6z"/>
</g>
</svg>
