<?xml version="1.0" encoding="utf-8"?>
<!-- Generator: Adobe Illustrator 24.0.0, SVG Export Plug-In . SVG Version: 6.00 Build 0)  -->
<svg version="1.1" id="Layer_1" xmlns="http://www.w3.org/2000/svg" xmlns:xlink="http://www.w3.org/1999/xlink" x="0px" y="0px"
	 viewBox="0 0 128 128" style="enable-background:new 0 0 128 128;" xml:space="preserve">
<style type="text/css">
	.st0{fill:#919090;}
</style>
<path class="st0" d="M117.4,9H87.5l-2.3-4.7c-1-2-3.1-3.3-5.4-3.3H51.4C49.1,1,47,2.3,46,4.3L43.7,9H13.8c-2.2,0-4,1.8-4,4v8
	c0,2.2,1.8,4,4,4h103.6c2.2,0,4-1.8,4-4v-8C121.4,10.8,119.6,9,117.4,9z M23.1,116.3c0.4,6.3,5.6,11.2,11.9,11.2h61.2
	c6.3,0,11.5-4.9,11.9-11.2l5.3-84.4H17.8L23.1,116.3z"/>
</svg>
